# xmcd CD database file
#
# Track frame offsets:
#	150
#	3292
#	22495
#	42677
#	59682
#	76960
#	95067
#	117400
#	124240
#	143422
#	162717
#	181462
#	202057
#	216232
#	237452
#	254105
#
# Disc length: 3573 seconds
#
# Revision: 2
# Processed by: cddbd v1.5PL3 Copyright (c) Steve Scherf et al.
# Submitted via: CDex 1.51
#
DISCID=020df310
DTITLE=98 DEGREES - 98 Degrees And Rising
DYEAR=1998
DGENRE=Dance
TTITLE0=Intro
TTITLE1=Heat It Up
TTITLE2=If She Only Knew
TTITLE3=I Do (Cherish You)
TTITLE4=Fly With Me
TTITLE5=Still
TTITLE6=Because Of You
TTITLE7=Give It Up (Interlude)
TTITLE8=Do You Wanna Dance
TTITLE9=True To Your Heart (Featuring Stevie Wonder)
TTITLE10=To Me You're Everything
TTITLE11=The Hardest Thing
TTITLE12=She's Out Of My Life
TTITLE13=Invisible Man
TTITLE14=The Hardest Thing (U Be U Mix)
TTITLE15=Because Of You (Hex Hector Dance Mix)
EXTD=YEAR: 1998
EXTT0=
EXTT1=
EXTT2=
EXTT3=
EXTT4=
EXTT5=
EXTT6=
EXTT7=
EXTT8=
EXTT9=
EXTT10=
EXTT11=
EXTT12=
EXTT13=
EXTT14=
EXTT15=
PLAYORDER=
